<mxfile host="app.diagrams.net" modified="2020-11-10T11:24:28.565Z" agent="5.0 (Windows NT 10.0; Win64; x64) AppleWebKit/537.36 (KHTML, like Gecko) Chrome/86.0.4240.183 Safari/537.36" etag="8iP1Tkc3wiMafN8_Ddk8" version="13.9.2" type="github">
  <diagram id="UkIjKZ4QafEXF4BR7oVa" name="Page-1">
    <mxGraphModel dx="1422" dy="762" grid="1" gridSize="10" guides="1" tooltips="1" connect="1" arrows="1" fold="1" page="1" pageScale="1" pageWidth="827" pageHeight="1169" math="0" shadow="0">
      <root>
        <mxCell id="0" />
        <mxCell id="1" parent="0" />
        <mxCell id="sFjm3XxgwYVO57IIj2dq-6" style="edgeStyle=orthogonalEdgeStyle;rounded=0;orthogonalLoop=1;jettySize=auto;html=1;entryX=0;entryY=0.5;entryDx=0;entryDy=0;curved=1;strokeWidth=2;" edge="1" parent="1" source="sFjm3XxgwYVO57IIj2dq-1" target="sFjm3XxgwYVO57IIj2dq-3">
          <mxGeometry relative="1" as="geometry" />
        </mxCell>
        <mxCell id="sFjm3XxgwYVO57IIj2dq-7" style="edgeStyle=orthogonalEdgeStyle;rounded=0;orthogonalLoop=1;jettySize=auto;html=1;entryX=0;entryY=0.5;entryDx=0;entryDy=0;curved=1;strokeWidth=2;" edge="1" parent="1" source="sFjm3XxgwYVO57IIj2dq-1" target="sFjm3XxgwYVO57IIj2dq-4">
          <mxGeometry relative="1" as="geometry" />
        </mxCell>
        <mxCell id="sFjm3XxgwYVO57IIj2dq-1" value="Message Broker" style="rounded=1;whiteSpace=wrap;html=1;fillColor=#e1d5e7;strokeColor=#9673a6;" vertex="1" parent="1">
          <mxGeometry x="290" y="80" width="180" height="60" as="geometry" />
        </mxCell>
        <mxCell id="sFjm3XxgwYVO57IIj2dq-5" style="edgeStyle=orthogonalEdgeStyle;rounded=0;orthogonalLoop=1;jettySize=auto;html=1;entryX=0;entryY=0.5;entryDx=0;entryDy=0;curved=1;strokeWidth=2;" edge="1" parent="1" source="sFjm3XxgwYVO57IIj2dq-2" target="sFjm3XxgwYVO57IIj2dq-1">
          <mxGeometry relative="1" as="geometry" />
        </mxCell>
        <mxCell id="sFjm3XxgwYVO57IIj2dq-2" value="Microservice&lt;br&gt;1" style="ellipse;whiteSpace=wrap;html=1;aspect=fixed;fillColor=#dae8fc;strokeColor=#6c8ebf;" vertex="1" parent="1">
          <mxGeometry x="160" y="70" width="80" height="80" as="geometry" />
        </mxCell>
        <mxCell id="sFjm3XxgwYVO57IIj2dq-3" value="Microservice&lt;br&gt;2" style="ellipse;whiteSpace=wrap;html=1;aspect=fixed;fillColor=#dae8fc;strokeColor=#6c8ebf;" vertex="1" parent="1">
          <mxGeometry x="530" y="20" width="80" height="80" as="geometry" />
        </mxCell>
        <mxCell id="sFjm3XxgwYVO57IIj2dq-4" value="Microservice&lt;br&gt;3" style="ellipse;whiteSpace=wrap;html=1;aspect=fixed;fillColor=#dae8fc;strokeColor=#6c8ebf;" vertex="1" parent="1">
          <mxGeometry x="530" y="120" width="80" height="80" as="geometry" />
        </mxCell>
        <mxCell id="sFjm3XxgwYVO57IIj2dq-8" value="Web" style="ellipse;whiteSpace=wrap;html=1;aspect=fixed;fillColor=#dae8fc;strokeColor=#6c8ebf;" vertex="1" parent="1">
          <mxGeometry x="120" y="280" width="80" height="80" as="geometry" />
        </mxCell>
        <mxCell id="sFjm3XxgwYVO57IIj2dq-9" value="Claim" style="ellipse;whiteSpace=wrap;html=1;aspect=fixed;fillColor=#dae8fc;strokeColor=#6c8ebf;" vertex="1" parent="1">
          <mxGeometry x="120" y="370" width="80" height="80" as="geometry" />
        </mxCell>
        <mxCell id="sFjm3XxgwYVO57IIj2dq-10" value="Payment" style="ellipse;whiteSpace=wrap;html=1;aspect=fixed;fillColor=#dae8fc;strokeColor=#6c8ebf;" vertex="1" parent="1">
          <mxGeometry x="120" y="460" width="80" height="80" as="geometry" />
        </mxCell>
        <mxCell id="sFjm3XxgwYVO57IIj2dq-11" value="Payment Core" style="ellipse;whiteSpace=wrap;html=1;aspect=fixed;fillColor=#dae8fc;strokeColor=#6c8ebf;" vertex="1" parent="1">
          <mxGeometry x="120" y="550" width="80" height="80" as="geometry" />
        </mxCell>
        <mxCell id="sFjm3XxgwYVO57IIj2dq-12" value="Calculation" style="ellipse;whiteSpace=wrap;html=1;aspect=fixed;fillColor=#dae8fc;strokeColor=#6c8ebf;" vertex="1" parent="1">
          <mxGeometry x="120" y="640" width="80" height="80" as="geometry" />
        </mxCell>
        <mxCell id="sFjm3XxgwYVO57IIj2dq-18" value="" style="edgeStyle=orthogonalEdgeStyle;curved=1;rounded=0;orthogonalLoop=1;jettySize=auto;html=1;strokeWidth=2;" edge="1" parent="1" source="sFjm3XxgwYVO57IIj2dq-13" target="sFjm3XxgwYVO57IIj2dq-8">
          <mxGeometry relative="1" as="geometry" />
        </mxCell>
        <mxCell id="sFjm3XxgwYVO57IIj2dq-13" value="RabbitMQ code" style="rounded=1;whiteSpace=wrap;html=1;fillColor=#e1d5e7;strokeColor=#9673a6;" vertex="1" parent="1">
          <mxGeometry x="240" y="290" width="120" height="60" as="geometry" />
        </mxCell>
        <mxCell id="sFjm3XxgwYVO57IIj2dq-19" value="" style="edgeStyle=orthogonalEdgeStyle;curved=1;rounded=0;orthogonalLoop=1;jettySize=auto;html=1;strokeWidth=2;" edge="1" parent="1" source="sFjm3XxgwYVO57IIj2dq-14" target="sFjm3XxgwYVO57IIj2dq-9">
          <mxGeometry relative="1" as="geometry" />
        </mxCell>
        <mxCell id="sFjm3XxgwYVO57IIj2dq-14" value="RabbitMQ code" style="rounded=1;whiteSpace=wrap;html=1;fillColor=#e1d5e7;strokeColor=#9673a6;" vertex="1" parent="1">
          <mxGeometry x="240" y="380" width="120" height="60" as="geometry" />
        </mxCell>
        <mxCell id="sFjm3XxgwYVO57IIj2dq-20" value="" style="edgeStyle=orthogonalEdgeStyle;curved=1;rounded=0;orthogonalLoop=1;jettySize=auto;html=1;strokeWidth=2;" edge="1" parent="1" source="sFjm3XxgwYVO57IIj2dq-15" target="sFjm3XxgwYVO57IIj2dq-10">
          <mxGeometry relative="1" as="geometry" />
        </mxCell>
        <mxCell id="sFjm3XxgwYVO57IIj2dq-15" value="RabbitMQ code" style="rounded=1;whiteSpace=wrap;html=1;fillColor=#e1d5e7;strokeColor=#9673a6;" vertex="1" parent="1">
          <mxGeometry x="240" y="470" width="120" height="60" as="geometry" />
        </mxCell>
        <mxCell id="sFjm3XxgwYVO57IIj2dq-21" value="" style="edgeStyle=orthogonalEdgeStyle;curved=1;rounded=0;orthogonalLoop=1;jettySize=auto;html=1;strokeWidth=2;" edge="1" parent="1" source="sFjm3XxgwYVO57IIj2dq-16" target="sFjm3XxgwYVO57IIj2dq-11">
          <mxGeometry relative="1" as="geometry" />
        </mxCell>
        <mxCell id="sFjm3XxgwYVO57IIj2dq-16" value="RabbitMQ code" style="rounded=1;whiteSpace=wrap;html=1;fillColor=#e1d5e7;strokeColor=#9673a6;" vertex="1" parent="1">
          <mxGeometry x="240" y="560" width="120" height="60" as="geometry" />
        </mxCell>
        <mxCell id="sFjm3XxgwYVO57IIj2dq-22" value="" style="edgeStyle=orthogonalEdgeStyle;curved=1;rounded=0;orthogonalLoop=1;jettySize=auto;html=1;strokeWidth=2;" edge="1" parent="1" source="sFjm3XxgwYVO57IIj2dq-17" target="sFjm3XxgwYVO57IIj2dq-12">
          <mxGeometry relative="1" as="geometry" />
        </mxCell>
        <mxCell id="sFjm3XxgwYVO57IIj2dq-17" value="RabbitMQ code" style="rounded=1;whiteSpace=wrap;html=1;fillColor=#e1d5e7;strokeColor=#9673a6;" vertex="1" parent="1">
          <mxGeometry x="240" y="650" width="120" height="60" as="geometry" />
        </mxCell>
        <mxCell id="sFjm3XxgwYVO57IIj2dq-24" value="Web" style="ellipse;whiteSpace=wrap;html=1;aspect=fixed;fillColor=#dae8fc;strokeColor=#6c8ebf;" vertex="1" parent="1">
          <mxGeometry x="400" y="280" width="80" height="80" as="geometry" />
        </mxCell>
        <mxCell id="sFjm3XxgwYVO57IIj2dq-25" value="Claim" style="ellipse;whiteSpace=wrap;html=1;aspect=fixed;fillColor=#dae8fc;strokeColor=#6c8ebf;" vertex="1" parent="1">
          <mxGeometry x="400" y="370" width="80" height="80" as="geometry" />
        </mxCell>
        <mxCell id="sFjm3XxgwYVO57IIj2dq-26" value="Payment" style="ellipse;whiteSpace=wrap;html=1;aspect=fixed;fillColor=#dae8fc;strokeColor=#6c8ebf;" vertex="1" parent="1">
          <mxGeometry x="400" y="460" width="80" height="80" as="geometry" />
        </mxCell>
        <mxCell id="sFjm3XxgwYVO57IIj2dq-27" value="Payment Core" style="ellipse;whiteSpace=wrap;html=1;aspect=fixed;fillColor=#dae8fc;strokeColor=#6c8ebf;" vertex="1" parent="1">
          <mxGeometry x="400" y="550" width="80" height="80" as="geometry" />
        </mxCell>
        <mxCell id="sFjm3XxgwYVO57IIj2dq-28" value="Calculation" style="ellipse;whiteSpace=wrap;html=1;aspect=fixed;fillColor=#dae8fc;strokeColor=#6c8ebf;" vertex="1" parent="1">
          <mxGeometry x="400" y="640" width="80" height="80" as="geometry" />
        </mxCell>
        <mxCell id="sFjm3XxgwYVO57IIj2dq-29" value="" style="edgeStyle=orthogonalEdgeStyle;curved=1;rounded=0;orthogonalLoop=1;jettySize=auto;html=1;strokeWidth=2;" edge="1" parent="1" source="sFjm3XxgwYVO57IIj2dq-30" target="sFjm3XxgwYVO57IIj2dq-24">
          <mxGeometry relative="1" as="geometry" />
        </mxCell>
        <mxCell id="sFjm3XxgwYVO57IIj2dq-30" value="Rhea Promise" style="rounded=1;whiteSpace=wrap;html=1;fillColor=#e1d5e7;strokeColor=#9673a6;" vertex="1" parent="1">
          <mxGeometry x="520" y="290" width="120" height="60" as="geometry" />
        </mxCell>
        <mxCell id="sFjm3XxgwYVO57IIj2dq-31" value="" style="edgeStyle=orthogonalEdgeStyle;curved=1;rounded=0;orthogonalLoop=1;jettySize=auto;html=1;strokeWidth=2;" edge="1" parent="1" source="sFjm3XxgwYVO57IIj2dq-32" target="sFjm3XxgwYVO57IIj2dq-25">
          <mxGeometry relative="1" as="geometry" />
        </mxCell>
        <mxCell id="sFjm3XxgwYVO57IIj2dq-32" value="Rhea Promise" style="rounded=1;whiteSpace=wrap;html=1;fillColor=#e1d5e7;strokeColor=#9673a6;" vertex="1" parent="1">
          <mxGeometry x="520" y="380" width="120" height="60" as="geometry" />
        </mxCell>
        <mxCell id="sFjm3XxgwYVO57IIj2dq-33" value="" style="edgeStyle=orthogonalEdgeStyle;curved=1;rounded=0;orthogonalLoop=1;jettySize=auto;html=1;strokeWidth=2;" edge="1" parent="1" source="sFjm3XxgwYVO57IIj2dq-34" target="sFjm3XxgwYVO57IIj2dq-26">
          <mxGeometry relative="1" as="geometry" />
        </mxCell>
        <mxCell id="sFjm3XxgwYVO57IIj2dq-34" value="Rhea Promise" style="rounded=1;whiteSpace=wrap;html=1;fillColor=#e1d5e7;strokeColor=#9673a6;" vertex="1" parent="1">
          <mxGeometry x="520" y="470" width="120" height="60" as="geometry" />
        </mxCell>
        <mxCell id="sFjm3XxgwYVO57IIj2dq-35" value="" style="edgeStyle=orthogonalEdgeStyle;curved=1;rounded=0;orthogonalLoop=1;jettySize=auto;html=1;strokeWidth=2;" edge="1" parent="1" source="sFjm3XxgwYVO57IIj2dq-36" target="sFjm3XxgwYVO57IIj2dq-27">
          <mxGeometry relative="1" as="geometry" />
        </mxCell>
        <mxCell id="sFjm3XxgwYVO57IIj2dq-36" value="Rhea Promise" style="rounded=1;whiteSpace=wrap;html=1;fillColor=#e1d5e7;strokeColor=#9673a6;" vertex="1" parent="1">
          <mxGeometry x="520" y="560" width="120" height="60" as="geometry" />
        </mxCell>
        <mxCell id="sFjm3XxgwYVO57IIj2dq-37" value="" style="edgeStyle=orthogonalEdgeStyle;curved=1;rounded=0;orthogonalLoop=1;jettySize=auto;html=1;strokeWidth=2;" edge="1" parent="1" source="sFjm3XxgwYVO57IIj2dq-38" target="sFjm3XxgwYVO57IIj2dq-28">
          <mxGeometry relative="1" as="geometry" />
        </mxCell>
        <mxCell id="sFjm3XxgwYVO57IIj2dq-38" value="Rhea Promise" style="rounded=1;whiteSpace=wrap;html=1;fillColor=#e1d5e7;strokeColor=#9673a6;" vertex="1" parent="1">
          <mxGeometry x="520" y="650" width="120" height="60" as="geometry" />
        </mxCell>
        <mxCell id="sFjm3XxgwYVO57IIj2dq-41" value="Web" style="ellipse;whiteSpace=wrap;html=1;aspect=fixed;fillColor=#dae8fc;strokeColor=#6c8ebf;" vertex="1" parent="1">
          <mxGeometry x="680" y="280" width="80" height="80" as="geometry" />
        </mxCell>
        <mxCell id="sFjm3XxgwYVO57IIj2dq-42" value="Claim" style="ellipse;whiteSpace=wrap;html=1;aspect=fixed;fillColor=#dae8fc;strokeColor=#6c8ebf;" vertex="1" parent="1">
          <mxGeometry x="680" y="370" width="80" height="80" as="geometry" />
        </mxCell>
        <mxCell id="sFjm3XxgwYVO57IIj2dq-43" value="Payment" style="ellipse;whiteSpace=wrap;html=1;aspect=fixed;fillColor=#dae8fc;strokeColor=#6c8ebf;" vertex="1" parent="1">
          <mxGeometry x="680" y="460" width="80" height="80" as="geometry" />
        </mxCell>
        <mxCell id="sFjm3XxgwYVO57IIj2dq-44" value="Payment Core" style="ellipse;whiteSpace=wrap;html=1;aspect=fixed;fillColor=#dae8fc;strokeColor=#6c8ebf;" vertex="1" parent="1">
          <mxGeometry x="680" y="550" width="80" height="80" as="geometry" />
        </mxCell>
        <mxCell id="sFjm3XxgwYVO57IIj2dq-45" value="Calculation" style="ellipse;whiteSpace=wrap;html=1;aspect=fixed;fillColor=#dae8fc;strokeColor=#6c8ebf;" vertex="1" parent="1">
          <mxGeometry x="680" y="640" width="80" height="80" as="geometry" />
        </mxCell>
        <mxCell id="sFjm3XxgwYVO57IIj2dq-46" value="" style="edgeStyle=orthogonalEdgeStyle;curved=1;rounded=0;orthogonalLoop=1;jettySize=auto;html=1;strokeWidth=2;" edge="1" parent="1" source="sFjm3XxgwYVO57IIj2dq-47" target="sFjm3XxgwYVO57IIj2dq-41">
          <mxGeometry relative="1" as="geometry" />
        </mxCell>
        <mxCell id="sFjm3XxgwYVO57IIj2dq-47" value="AWS SQS" style="rounded=1;whiteSpace=wrap;html=1;fillColor=#e1d5e7;strokeColor=#9673a6;" vertex="1" parent="1">
          <mxGeometry x="800" y="290" width="120" height="60" as="geometry" />
        </mxCell>
        <mxCell id="sFjm3XxgwYVO57IIj2dq-48" value="" style="edgeStyle=orthogonalEdgeStyle;curved=1;rounded=0;orthogonalLoop=1;jettySize=auto;html=1;strokeWidth=2;" edge="1" parent="1" source="sFjm3XxgwYVO57IIj2dq-49" target="sFjm3XxgwYVO57IIj2dq-42">
          <mxGeometry relative="1" as="geometry" />
        </mxCell>
        <mxCell id="sFjm3XxgwYVO57IIj2dq-49" value="AWS SQS" style="rounded=1;whiteSpace=wrap;html=1;fillColor=#e1d5e7;strokeColor=#9673a6;" vertex="1" parent="1">
          <mxGeometry x="800" y="380" width="120" height="60" as="geometry" />
        </mxCell>
        <mxCell id="sFjm3XxgwYVO57IIj2dq-50" value="" style="edgeStyle=orthogonalEdgeStyle;curved=1;rounded=0;orthogonalLoop=1;jettySize=auto;html=1;strokeWidth=2;" edge="1" parent="1" source="sFjm3XxgwYVO57IIj2dq-51" target="sFjm3XxgwYVO57IIj2dq-43">
          <mxGeometry relative="1" as="geometry" />
        </mxCell>
        <mxCell id="sFjm3XxgwYVO57IIj2dq-51" value="AWS SQS" style="rounded=1;whiteSpace=wrap;html=1;fillColor=#e1d5e7;strokeColor=#9673a6;" vertex="1" parent="1">
          <mxGeometry x="800" y="470" width="120" height="60" as="geometry" />
        </mxCell>
        <mxCell id="sFjm3XxgwYVO57IIj2dq-52" value="" style="edgeStyle=orthogonalEdgeStyle;curved=1;rounded=0;orthogonalLoop=1;jettySize=auto;html=1;strokeWidth=2;" edge="1" parent="1" source="sFjm3XxgwYVO57IIj2dq-53" target="sFjm3XxgwYVO57IIj2dq-44">
          <mxGeometry relative="1" as="geometry" />
        </mxCell>
        <mxCell id="sFjm3XxgwYVO57IIj2dq-53" value="AWS SQS" style="rounded=1;whiteSpace=wrap;html=1;fillColor=#e1d5e7;strokeColor=#9673a6;" vertex="1" parent="1">
          <mxGeometry x="800" y="560" width="120" height="60" as="geometry" />
        </mxCell>
        <mxCell id="sFjm3XxgwYVO57IIj2dq-54" value="" style="edgeStyle=orthogonalEdgeStyle;curved=1;rounded=0;orthogonalLoop=1;jettySize=auto;html=1;strokeWidth=2;" edge="1" parent="1" source="sFjm3XxgwYVO57IIj2dq-55" target="sFjm3XxgwYVO57IIj2dq-45">
          <mxGeometry relative="1" as="geometry" />
        </mxCell>
        <mxCell id="sFjm3XxgwYVO57IIj2dq-55" value="AWS SQS" style="rounded=1;whiteSpace=wrap;html=1;fillColor=#e1d5e7;strokeColor=#9673a6;" vertex="1" parent="1">
          <mxGeometry x="800" y="650" width="120" height="60" as="geometry" />
        </mxCell>
        <mxCell id="sFjm3XxgwYVO57IIj2dq-56" value="Web" style="ellipse;whiteSpace=wrap;html=1;aspect=fixed;fillColor=#dae8fc;strokeColor=#6c8ebf;" vertex="1" parent="1">
          <mxGeometry x="960" y="280" width="80" height="80" as="geometry" />
        </mxCell>
        <mxCell id="sFjm3XxgwYVO57IIj2dq-57" value="Claim" style="ellipse;whiteSpace=wrap;html=1;aspect=fixed;fillColor=#dae8fc;strokeColor=#6c8ebf;" vertex="1" parent="1">
          <mxGeometry x="960" y="370" width="80" height="80" as="geometry" />
        </mxCell>
        <mxCell id="sFjm3XxgwYVO57IIj2dq-58" value="Payment" style="ellipse;whiteSpace=wrap;html=1;aspect=fixed;fillColor=#dae8fc;strokeColor=#6c8ebf;" vertex="1" parent="1">
          <mxGeometry x="960" y="460" width="80" height="80" as="geometry" />
        </mxCell>
        <mxCell id="sFjm3XxgwYVO57IIj2dq-59" value="Payment Core" style="ellipse;whiteSpace=wrap;html=1;aspect=fixed;fillColor=#dae8fc;strokeColor=#6c8ebf;" vertex="1" parent="1">
          <mxGeometry x="960" y="550" width="80" height="80" as="geometry" />
        </mxCell>
        <mxCell id="sFjm3XxgwYVO57IIj2dq-60" value="Calculation" style="ellipse;whiteSpace=wrap;html=1;aspect=fixed;fillColor=#dae8fc;strokeColor=#6c8ebf;" vertex="1" parent="1">
          <mxGeometry x="960" y="640" width="80" height="80" as="geometry" />
        </mxCell>
        <mxCell id="sFjm3XxgwYVO57IIj2dq-61" value="" style="edgeStyle=orthogonalEdgeStyle;curved=1;rounded=0;orthogonalLoop=1;jettySize=auto;html=1;strokeWidth=2;" edge="1" parent="1" source="sFjm3XxgwYVO57IIj2dq-62" target="sFjm3XxgwYVO57IIj2dq-56">
          <mxGeometry relative="1" as="geometry" />
        </mxCell>
        <mxCell id="sFjm3XxgwYVO57IIj2dq-62" value="Azure Service Bus" style="rounded=1;whiteSpace=wrap;html=1;fillColor=#e1d5e7;strokeColor=#9673a6;" vertex="1" parent="1">
          <mxGeometry x="1080" y="290" width="120" height="60" as="geometry" />
        </mxCell>
        <mxCell id="sFjm3XxgwYVO57IIj2dq-63" value="" style="edgeStyle=orthogonalEdgeStyle;curved=1;rounded=0;orthogonalLoop=1;jettySize=auto;html=1;strokeWidth=2;" edge="1" parent="1" source="sFjm3XxgwYVO57IIj2dq-64" target="sFjm3XxgwYVO57IIj2dq-57">
          <mxGeometry relative="1" as="geometry" />
        </mxCell>
        <mxCell id="sFjm3XxgwYVO57IIj2dq-64" value="Azure Service Bus" style="rounded=1;whiteSpace=wrap;html=1;fillColor=#e1d5e7;strokeColor=#9673a6;" vertex="1" parent="1">
          <mxGeometry x="1080" y="380" width="120" height="60" as="geometry" />
        </mxCell>
        <mxCell id="sFjm3XxgwYVO57IIj2dq-65" value="" style="edgeStyle=orthogonalEdgeStyle;curved=1;rounded=0;orthogonalLoop=1;jettySize=auto;html=1;strokeWidth=2;" edge="1" parent="1" source="sFjm3XxgwYVO57IIj2dq-66" target="sFjm3XxgwYVO57IIj2dq-58">
          <mxGeometry relative="1" as="geometry" />
        </mxCell>
        <mxCell id="sFjm3XxgwYVO57IIj2dq-66" value="Azure Service Bus" style="rounded=1;whiteSpace=wrap;html=1;fillColor=#e1d5e7;strokeColor=#9673a6;" vertex="1" parent="1">
          <mxGeometry x="1080" y="470" width="120" height="60" as="geometry" />
        </mxCell>
        <mxCell id="sFjm3XxgwYVO57IIj2dq-67" value="" style="edgeStyle=orthogonalEdgeStyle;curved=1;rounded=0;orthogonalLoop=1;jettySize=auto;html=1;strokeWidth=2;" edge="1" parent="1" source="sFjm3XxgwYVO57IIj2dq-68" target="sFjm3XxgwYVO57IIj2dq-59">
          <mxGeometry relative="1" as="geometry" />
        </mxCell>
        <mxCell id="sFjm3XxgwYVO57IIj2dq-68" value="Azure Service Bus" style="rounded=1;whiteSpace=wrap;html=1;fillColor=#e1d5e7;strokeColor=#9673a6;" vertex="1" parent="1">
          <mxGeometry x="1080" y="560" width="120" height="60" as="geometry" />
        </mxCell>
        <mxCell id="sFjm3XxgwYVO57IIj2dq-69" value="" style="edgeStyle=orthogonalEdgeStyle;curved=1;rounded=0;orthogonalLoop=1;jettySize=auto;html=1;strokeWidth=2;" edge="1" parent="1" source="sFjm3XxgwYVO57IIj2dq-70" target="sFjm3XxgwYVO57IIj2dq-60">
          <mxGeometry relative="1" as="geometry" />
        </mxCell>
        <mxCell id="sFjm3XxgwYVO57IIj2dq-70" value="Azure Service Bus" style="rounded=1;whiteSpace=wrap;html=1;fillColor=#e1d5e7;strokeColor=#9673a6;" vertex="1" parent="1">
          <mxGeometry x="1080" y="650" width="120" height="60" as="geometry" />
        </mxCell>
        <mxCell id="sFjm3XxgwYVO57IIj2dq-71" value="Web" style="ellipse;whiteSpace=wrap;html=1;aspect=fixed;fillColor=#dae8fc;strokeColor=#6c8ebf;" vertex="1" parent="1">
          <mxGeometry x="120" y="760" width="80" height="80" as="geometry" />
        </mxCell>
        <mxCell id="sFjm3XxgwYVO57IIj2dq-72" value="Claim" style="ellipse;whiteSpace=wrap;html=1;aspect=fixed;fillColor=#dae8fc;strokeColor=#6c8ebf;" vertex="1" parent="1">
          <mxGeometry x="120" y="850" width="80" height="80" as="geometry" />
        </mxCell>
        <mxCell id="sFjm3XxgwYVO57IIj2dq-73" value="Payment" style="ellipse;whiteSpace=wrap;html=1;aspect=fixed;fillColor=#dae8fc;strokeColor=#6c8ebf;" vertex="1" parent="1">
          <mxGeometry x="120" y="940" width="80" height="80" as="geometry" />
        </mxCell>
        <mxCell id="sFjm3XxgwYVO57IIj2dq-74" value="Payment Core" style="ellipse;whiteSpace=wrap;html=1;aspect=fixed;fillColor=#dae8fc;strokeColor=#6c8ebf;" vertex="1" parent="1">
          <mxGeometry x="120" y="1030" width="80" height="80" as="geometry" />
        </mxCell>
        <mxCell id="sFjm3XxgwYVO57IIj2dq-75" value="Calculation" style="ellipse;whiteSpace=wrap;html=1;aspect=fixed;fillColor=#dae8fc;strokeColor=#6c8ebf;" vertex="1" parent="1">
          <mxGeometry x="120" y="1120" width="80" height="80" as="geometry" />
        </mxCell>
        <mxCell id="sFjm3XxgwYVO57IIj2dq-79" style="edgeStyle=orthogonalEdgeStyle;curved=1;rounded=0;orthogonalLoop=1;jettySize=auto;html=1;entryX=1;entryY=0.5;entryDx=0;entryDy=0;strokeWidth=2;" edge="1" parent="1" source="sFjm3XxgwYVO57IIj2dq-76" target="sFjm3XxgwYVO57IIj2dq-71">
          <mxGeometry relative="1" as="geometry" />
        </mxCell>
        <mxCell id="sFjm3XxgwYVO57IIj2dq-80" style="edgeStyle=orthogonalEdgeStyle;curved=1;rounded=0;orthogonalLoop=1;jettySize=auto;html=1;entryX=1;entryY=0.5;entryDx=0;entryDy=0;strokeWidth=2;" edge="1" parent="1" source="sFjm3XxgwYVO57IIj2dq-76" target="sFjm3XxgwYVO57IIj2dq-72">
          <mxGeometry relative="1" as="geometry" />
        </mxCell>
        <mxCell id="sFjm3XxgwYVO57IIj2dq-81" style="edgeStyle=orthogonalEdgeStyle;curved=1;rounded=0;orthogonalLoop=1;jettySize=auto;html=1;entryX=1;entryY=0.5;entryDx=0;entryDy=0;strokeWidth=2;" edge="1" parent="1" source="sFjm3XxgwYVO57IIj2dq-76" target="sFjm3XxgwYVO57IIj2dq-73">
          <mxGeometry relative="1" as="geometry" />
        </mxCell>
        <mxCell id="sFjm3XxgwYVO57IIj2dq-82" style="edgeStyle=orthogonalEdgeStyle;curved=1;rounded=0;orthogonalLoop=1;jettySize=auto;html=1;entryX=1;entryY=0.5;entryDx=0;entryDy=0;strokeWidth=2;" edge="1" parent="1" source="sFjm3XxgwYVO57IIj2dq-76" target="sFjm3XxgwYVO57IIj2dq-74">
          <mxGeometry relative="1" as="geometry" />
        </mxCell>
        <mxCell id="sFjm3XxgwYVO57IIj2dq-83" style="edgeStyle=orthogonalEdgeStyle;curved=1;rounded=0;orthogonalLoop=1;jettySize=auto;html=1;entryX=1;entryY=0.5;entryDx=0;entryDy=0;strokeWidth=2;" edge="1" parent="1" source="sFjm3XxgwYVO57IIj2dq-76" target="sFjm3XxgwYVO57IIj2dq-75">
          <mxGeometry relative="1" as="geometry" />
        </mxCell>
        <mxCell id="sFjm3XxgwYVO57IIj2dq-76" value="Messaging" style="ellipse;whiteSpace=wrap;html=1;aspect=fixed;fillColor=#dae8fc;strokeColor=#6c8ebf;" vertex="1" parent="1">
          <mxGeometry x="300" y="940" width="80" height="80" as="geometry" />
        </mxCell>
        <mxCell id="sFjm3XxgwYVO57IIj2dq-78" value="" style="edgeStyle=orthogonalEdgeStyle;curved=1;rounded=0;orthogonalLoop=1;jettySize=auto;html=1;strokeWidth=2;" edge="1" parent="1" source="sFjm3XxgwYVO57IIj2dq-77" target="sFjm3XxgwYVO57IIj2dq-76">
          <mxGeometry relative="1" as="geometry" />
        </mxCell>
        <mxCell id="sFjm3XxgwYVO57IIj2dq-77" value="Azure Service Bus" style="rounded=1;whiteSpace=wrap;html=1;fillColor=#e1d5e7;strokeColor=#9673a6;" vertex="1" parent="1">
          <mxGeometry x="420" y="950" width="120" height="60" as="geometry" />
        </mxCell>
      </root>
    </mxGraphModel>
  </diagram>
</mxfile>
